<?xml version="1.0" standalone="no"?>
<!DOCTYPE svg PUBLIC "-//W3C//DTD SVG 20010904//EN"
 "http://www.w3.org/TR/2001/REC-SVG-20010904/DTD/svg10.dtd">
<svg version="1.0" xmlns="http://www.w3.org/2000/svg"
 width="1681.000000pt" height="303.000000pt" viewBox="0 0 1681.000000 303.000000"
 preserveAspectRatio="xMidYMid meet">
<metadata>
Created by potrace 1.16, written by Peter Selinger 2001-2019
</metadata>
<g transform="translate(0.000000,303.000000) scale(0.100000,-0.100000)"
fill="#000000" stroke="none">
<path d="M13722 2432 c-456 -1254 -558 -1539 -579 -1622 -33 -129 -35 -288 -5
-373 31 -86 83 -144 161 -181 62 -29 74 -31 176 -31 129 0 204 21 299 85 123
81 273 254 397 457 24 39 44 71 45 70 1 -1 -2 -42 -7 -92 -16 -169 16 -328 85
-418 89 -117 292 -139 471 -52 126 62 280 213 404 396 82 120 80 118 70 67
-13 -71 -10 -230 6 -284 42 -142 148 -220 312 -232 255 -17 468 138 704 513
91 144 189 317 189 333 0 14 -37 35 -49 28 -5 -3 -39 -61 -77 -128 -37 -68
-103 -175 -145 -238 -140 -208 -242 -310 -377 -377 -62 -31 -86 -37 -157 -41
-72 -4 -90 -1 -129 18 -87 42 -116 130 -91 274 22 124 42 182 401 1170 178
490 324 897 324 904 0 10 -26 12 -112 10 l-112 -3 -176 -485 c-205 -566 -193
-535 -197 -495 -14 115 -69 201 -153 238 -36 16 -65 20 -140 20 -384 -4 -777
-337 -955 -810 -45 -118 -215 -402 -330 -548 -158 -201 -308 -295 -469 -295
-144 1 -218 91 -202 245 12 114 58 254 396 1182 187 513 340 937 340 943 0 6
-43 10 -112 10 l-113 0 -93 -258z m1664 -567 c49 -29 88 -99 99 -176 17 -130
-61 -408 -186 -659 -227 -456 -510 -736 -725 -718 -68 6 -101 29 -133 93 -21
41 -24 62 -24 139 2 247 150 664 332 937 210 314 479 477 637 384z"/>
<path d="M1298 2465 c-385 -63 -590 -285 -691 -750 l-14 -60 -123 -5 -124 -5
-23 -95 c-33 -142 -43 -130 97 -130 74 0 120 -4 120 -10 0 -6 -54 -265 -120
-577 -66 -311 -120 -568 -120 -570 0 -1 150 -3 334 -3 258 0 335 3 338 13 2 6
58 267 124 579 l119 568 171 0 170 0 18 98 c10 53 20 105 23 115 4 16 -8 17
-161 17 -142 0 -166 2 -166 15 0 9 16 88 35 176 48 226 88 290 199 320 35 10
281 7 370 -4 17 -2 23 13 46 131 15 73 24 135 20 137 -5 3 -61 14 -127 26
-155 27 -397 34 -515 14z"/>
<path d="M6415 2418 c-2 -7 -45 -209 -95 -448 -50 -239 -96 -457 -102 -484
l-11 -50 -27 60 c-58 129 -169 186 -365 185 -192 0 -299 -44 -430 -176 -63
-62 -91 -100 -126 -170 -105 -206 -144 -376 -144 -625 0 -147 3 -172 23 -232
62 -179 229 -263 471 -239 162 17 260 61 368 164 l62 59 21 -74 c12 -40 25
-84 29 -98 l8 -25 266 -3 c246 -2 266 -1 271 15 6 21 456 2140 456 2148 0 3
-151 5 -335 5 -260 0 -337 -3 -340 -12z m-289 -1117 c25 -25 42 -52 40 -61 -3
-8 -31 -136 -62 -285 -63 -298 -67 -309 -153 -364 -94 -61 -148 -50 -171 35
-28 99 29 431 100 579 54 113 111 160 178 147 13 -3 44 -25 68 -51z"/>
<path d="M9623 1955 c-37 -16 -52 -55 -35 -94 6 -14 22 -53 36 -86 67 -160 51
-442 -41 -715 -98 -290 -276 -550 -462 -672 -122 -80 -243 -101 -312 -55 -93
63 -109 159 -57 362 15 57 353 1014 435 1233 4 9 -22 12 -110 12 l-115 0 -10
-27 c-152 -424 -357 -984 -378 -1033 -103 -238 -281 -443 -461 -532 -59 -29
-78 -33 -145 -33 -62 0 -82 4 -104 21 -93 69 -102 183 -33 415 15 53 116 338
224 634 107 296 195 542 195 546 0 5 -51 9 -112 9 l-113 0 -180 -497 c-226
-622 -235 -653 -242 -810 -5 -109 -3 -129 17 -193 41 -129 133 -205 263 -217
119 -11 241 27 362 112 67 48 209 191 251 254 15 23 28 40 29 39 2 -2 8 -43
14 -93 26 -218 148 -327 351 -312 256 18 506 245 696 631 68 139 132 322 165
471 30 133 37 396 14 499 -25 115 -74 160 -142 131z"/>
<path d="M10994 1959 c-251 -32 -518 -233 -687 -518 -210 -353 -254 -807 -101
-1047 120 -187 377 -227 638 -100 102 49 216 135 290 217 46 51 128 156 145
187 7 12 14 11 47 -6 128 -65 305 -45 418 48 26 22 50 40 52 40 3 0 -23 -76
-130 -369 -31 -84 -56 -155 -56 -157 0 -2 51 -4 114 -4 l114 0 45 123 c24 67
84 232 133 367 76 211 101 267 177 400 292 508 511 750 677 750 33 0 55 -6 74
-21 37 -29 33 -39 -15 -39 -81 0 -139 -103 -105 -184 18 -43 50 -64 107 -72
89 -12 153 66 153 186 -1 115 -52 180 -157 201 -181 37 -372 -116 -611 -488
-33 -51 -61 -91 -62 -90 -2 1 42 126 96 276 55 150 100 275 100 277 0 2 -51 4
-113 4 l-114 0 -157 -430 c-182 -499 -222 -581 -336 -683 -67 -60 -128 -88
-204 -94 -72 -6 -108 8 -150 57 l-26 31 29 57 c145 287 183 683 85 878 -56
111 -157 184 -284 204 -73 11 -98 11 -186 -1z m240 -81 c57 -17 119 -82 142
-149 39 -112 9 -464 -42 -494 -99 -59 -136 -100 -159 -179 -19 -62 -19 -107
-1 -175 l14 -54 -41 -68 c-155 -259 -373 -437 -547 -447 -82 -5 -130 9 -172
51 -67 68 -92 183 -77 367 24 292 142 628 295 841 106 147 254 266 377 305 54
16 158 17 211 2z"/>
<path d="M2380 1680 c-424 -27 -717 -204 -828 -502 -50 -132 -69 -365 -41
-498 43 -208 207 -363 437 -414 255 -57 659 -32 881 54 139 54 131 44 175 231
21 90 41 170 43 177 4 9 -54 12 -271 12 -215 0 -276 -3 -276 -13 0 -18 -48
-107 -82 -150 -41 -51 -112 -98 -158 -104 -33 -5 -43 -1 -64 22 -35 38 -50
119 -42 235 3 52 9 112 12 132 l7 38 451 2 451 3 28 52 c63 118 88 340 51 450
-71 210 -330 301 -774 273z m162 -259 c28 -25 32 -36 36 -92 3 -35 -1 -107 -8
-161 l-12 -98 -174 0 c-96 0 -174 1 -174 3 0 2 11 35 24 73 83 244 213 360
308 275z"/>
<path d="M4535 1680 c-134 -15 -288 -86 -416 -192 -26 -21 -49 -38 -52 -38 -2
0 -17 45 -32 100 l-28 100 -268 0 c-246 0 -268 -1 -273 -17 -8 -30 -286 -1350
-286 -1362 0 -8 99 -11 335 -11 184 0 335 4 335 8 0 5 47 228 104 498 l104
489 39 34 c61 53 95 71 138 71 70 -1 101 -43 91 -125 -3 -29 -49 -255 -101
-503 -52 -249 -95 -457 -95 -462 0 -6 119 -10 333 -10 l332 0 93 438 c114 538
125 599 120 687 -8 163 -123 270 -318 294 -46 6 -87 10 -90 10 -3 -1 -32 -5
-65 -9z"/>
<path d="M7075 519 c-65 -18 -112 -93 -100 -158 13 -68 64 -111 133 -111 88 0
142 54 142 140 0 47 -4 56 -39 91 -21 22 -48 39 -59 39 -11 0 -26 2 -34 4 -7
2 -27 0 -43 -5z"/>
</g>
</svg>
