<svg height="512" viewBox="0 0 512 512" width="512" xmlns="http://www.w3.org/2000/svg"><g id="flat"><path d="m440 280a144 144 0 1 0 -240 107.321v36.679a24 24 0 0 0 40 17.884v26.116a20 20 0 0 0 40 0v-44.889a145.751 145.751 0 0 0 16 .889 143.76 143.76 0 0 0 48-8.2v20.2a20 20 0 0 0 40 0v-12.4a20.009 20.009 0 0 0 24-19.6v-33.5a143.388 143.388 0 0 0 32-90.5z" fill="#8feaff"/><path d="m272 256v40l-56 8-16 32h-36.7a144.175 144.175 0 0 1 16.5-141.06l20.2 13.06 8 32h40z" fill="#8feaff"/><path d="m438.48 259.01-22.48 4.99-16 40h-40l-8-16-32-16-8-24 40-16 16-40 29.33-8 4.81-1.31a143.494 143.494 0 0 1 36.34 76.32z" fill="#8feaff"/><path d="m355.39 148.78-1.79 3.22-9.6 16-16 32-32 8-16-24-32-16-7.04-21.11a144.458 144.458 0 0 1 114.43 1.89z" fill="#8feaff"/><path d="m419.14 354.69a144.24 144.24 0 0 1 -88.23 65.05l-2.91-3.74-16-24 16-32-16-16 24-24 24 16h40l16 16z" fill="#02a437"/><path d="m438.48 259.01-22.48 4.99-16 40h-40l-8-16-32-16-8-24 40-16 16-40 29.33-8 4.81-1.31a143.494 143.494 0 0 1 36.34 76.32z" fill="#02a437"/><path d="m355.39 148.78-1.79 3.22-9.6 16-16 32-32 8-16-24-32-16-7.04-21.11a144.458 144.458 0 0 1 114.43 1.89z" fill="#02a437"/><path d="m248 336-16 22.026v32l24 17.974 32-24-16-16v-24z" fill="#02a437"/><g fill="#fbb540"><path d="m136 48a8 8 0 0 1 -8-8v-16a8 8 0 0 1 16 0v16a8 8 0 0 1 -8 8z"/><path d="m102.059 62.059a7.982 7.982 0 0 1 -5.659-2.343l-11.312-11.316a8 8 0 0 1 11.312-11.312l11.316 11.312a8 8 0 0 1 -5.657 13.658z"/><path d="m88 96h-16a8 8 0 0 1 0-16h16a8 8 0 0 1 0 16z"/><path d="m200 96h-16a8 8 0 0 1 0-16h16a8 8 0 0 1 0 16z"/><path d="m169.941 62.059a8 8 0 0 1 -5.657-13.659l11.316-11.312a8 8 0 0 1 11.312 11.312l-11.312 11.316a7.982 7.982 0 0 1 -5.659 2.343z"/></g><path d="m250 112a8 8 0 0 1 -8-8c0-9.736 4.654-14.909 8.054-18.686 2.806-3.114 3.946-4.523 3.946-7.982s-1.14-4.863-3.946-7.982c-3.4-3.777-8.054-8.95-8.054-18.686s4.655-14.908 8.054-18.684c2.807-3.119 3.946-4.522 3.946-7.98a8 8 0 0 1 16 0c0 9.736-4.655 14.908-8.054 18.684-2.807 3.116-3.946 4.522-3.946 7.98s1.14 4.863 3.946 7.982c3.4 3.777 8.054 8.95 8.054 18.686s-4.654 14.909-8.054 18.686c-2.806 3.119-3.946 4.523-3.946 7.982a8 8 0 0 1 -8 8z" fill="#ea9d2d"/><path d="m314 112a8 8 0 0 1 -8-8c0-9.736 4.654-14.909 8.054-18.686 2.806-3.114 3.946-4.523 3.946-7.982s-1.14-4.863-3.946-7.982c-3.4-3.777-8.054-8.95-8.054-18.686s4.655-14.908 8.054-18.684c2.807-3.119 3.946-4.522 3.946-7.98a8 8 0 0 1 16 0c0 9.736-4.655 14.908-8.054 18.684-2.807 3.116-3.946 4.522-3.946 7.98s1.14 4.863 3.946 7.982c3.4 3.777 8.054 8.95 8.054 18.686s-4.654 14.909-8.054 18.686c-2.806 3.119-3.946 4.523-3.946 7.982a8 8 0 0 1 -8 8z" fill="#ea9d2d"/><path d="m378 112a8 8 0 0 1 -8-8c0-9.736 4.654-14.909 8.054-18.686 2.806-3.114 3.946-4.523 3.946-7.982s-1.14-4.863-3.946-7.982c-3.4-3.777-8.054-8.95-8.054-18.686s4.655-14.908 8.054-18.684c2.807-3.119 3.946-4.522 3.946-7.98a8 8 0 0 1 16 0c0 9.736-4.655 14.908-8.054 18.684-2.807 3.116-3.946 4.522-3.946 7.98s1.14 4.863 3.946 7.982c3.4 3.777 8.054 8.95 8.054 18.686s-4.654 14.909-8.054 18.686c-2.806 3.119-3.946 4.523-3.946 7.982a8 8 0 0 1 -8 8z" fill="#ea9d2d"/><path d="m419.14 354.69a144.24 144.24 0 0 1 -88.23 65.05l-2.91-3.74-16-24 16-32-16-16 24-24 24 16h40l16 16z" fill="#02a437"/><path d="m272 256v40l-56 8-16 32h-36.7a144.175 144.175 0 0 1 16.5-141.06l20.2 13.06 8 32h40z" fill="#02a437"/><path d="m120 152v116.292a32 32 0 1 0 32 0v-116.292z" fill="#e82f3e"/><path d="m152 152h-32v-64a16 16 0 0 1 16-16 16 16 0 0 1 16 16z" fill="#eaeae8"/></g></svg>
